<?xml version="1.0" standalone="no"?>
 <!DOCTYPE svg PUBLIC "-//W3C//DTD SVG 1.1//EN" 
 "http://www.w3.org/Graphics/SVG/1.1/DTD/svg11.dtd"> 
<svg
  xmlns:svg="http://www.w3.org/2000/svg"
  xmlns="http://www.w3.org/2000/svg"
  xmlns:xlink="http://www.w3.org/1999/xlink"
  version="1.1"
  width="297.0022mm" height="210.0072mm" viewBox="0.0000 0.0000 297.0022 210.0072">
<title>SVG Image created as CanSat-B_Mask.svg date 2025/10/06 02:54:27 </title>
  <desc>Image generated by PCBNEW </desc>
<g style="fill:#000000; fill-opacity:1.0000;stroke:#000000; stroke-opacity:1.0000;
stroke-linecap:round; stroke-linejoin:round;"
 transform="translate(0 0) scale(1 1)">
<path style="fill:none; 
stroke:#000000; stroke-width:0.1000; stroke-opacity:1; 
stroke-linecap:round; stroke-linejoin:round;fill:none"
d="M 284.0022,13.0000
176.5022,13.0000
176.5022,102.0000
284.0022,102.0000
Z" /> 
<path style="fill:#000000; fill-opacity:1.0000; 
stroke:#000000; stroke-width:0.1000; stroke-opacity:1; 
stroke-linecap:round; stroke-linejoin:round;fill-rule:evenodd;"
d="M 243.5022,47.3199
227.5179,47.3199
227.5179,63.0000
243.5022,63.0000
Z" /> 
<path style="fill:#000000; fill-opacity:1.0000; stroke:none;fill-rule:evenodd;"
d="M 271.9799,55.3719
271.9799,53.8479
270.4559,53.8479
270.4559,55.3719
Z" /> 
</g>
<g style="fill:#000000; fill-opacity:1.0000; stroke:none;">
<circle cx="271.2179" cy="57.1499" r="0.7620" /> 
</g>
<g style="fill:#000000; fill-opacity:1.0000; stroke:none;">
<circle cx="271.2179" cy="59.6899" r="0.7620" /> 
</g>
<g style="fill:#000000; fill-opacity:1.0000; stroke:none;">
<circle cx="271.2179" cy="62.2299" r="0.7620" /> 
</g>
<g style="fill:#000000; fill-opacity:1.0000; stroke:none;">
<circle cx="271.2179" cy="64.7699" r="0.7620" /> 
</g>
<g style="fill:#000000; fill-opacity:1.0000; stroke:none;">
<circle cx="271.2179" cy="67.3099" r="0.7620" /> 
</g>
<g style="fill:#000000; fill-opacity:1.0000; stroke:none;">
<circle cx="271.2179" cy="69.8499" r="0.7620" /> 
</g>
<g style="fill:#000000; fill-opacity:1.0000; stroke:none;">
<circle cx="271.2179" cy="72.3899" r="0.7620" /> 
</g>
<g style="fill:#000000; fill-opacity:1.0000; stroke:none;">
<circle cx="271.2179" cy="74.9299" r="0.7620" /> 
</g>
<g style="fill:#000000; fill-opacity:1.0000; stroke:none;">
<circle cx="271.2179" cy="77.4699" r="0.7620" /> 
</g>
<g style="fill:#000000; fill-opacity:1.0000; stroke:none;">
<circle cx="271.2179" cy="80.0099" r="0.7620" /> 
</g>
<g style="fill:#000000; fill-opacity:1.0000; stroke:none;">
<circle cx="271.2179" cy="82.5499" r="0.7620" /> 
</g>
<g style="fill:#000000; fill-opacity:1.0000; stroke:none;">
<circle cx="271.2179" cy="85.0899" r="0.7620" /> 
</g>
<g style="fill:#000000; fill-opacity:1.0000; stroke:none;">
<circle cx="271.2179" cy="87.6299" r="0.7620" /> 
</g>
<g style="fill:#000000; fill-opacity:1.0000; stroke:none;">
<circle cx="271.2179" cy="90.1699" r="0.7620" /> 
</g>
<g style="fill:#000000; fill-opacity:1.0000; stroke:none;">
<circle cx="245.8179" cy="90.1699" r="0.7620" /> 
</g>
<g style="fill:#000000; fill-opacity:1.0000; stroke:none;">
<circle cx="245.8179" cy="87.6299" r="0.7620" /> 
</g>
<g style="fill:#000000; fill-opacity:1.0000; stroke:none;">
<circle cx="245.8179" cy="85.0899" r="0.7620" /> 
</g>
<g style="fill:#000000; fill-opacity:1.0000; stroke:none;">
<circle cx="245.8179" cy="82.5499" r="0.7620" /> 
</g>
<g style="fill:#000000; fill-opacity:1.0000; stroke:none;">
<circle cx="245.8179" cy="80.0099" r="0.7620" /> 
</g>
<g style="fill:#000000; fill-opacity:1.0000; stroke:none;">
<circle cx="245.8179" cy="77.4699" r="0.7620" /> 
</g>
<g style="fill:#000000; fill-opacity:1.0000; stroke:none;">
<circle cx="245.8179" cy="74.9299" r="0.7620" /> 
</g>
<g style="fill:#000000; fill-opacity:1.0000; stroke:none;">
<circle cx="245.8179" cy="72.3899" r="0.7620" /> 
</g>
<g style="fill:#000000; fill-opacity:1.0000; stroke:none;">
<circle cx="245.8179" cy="69.8499" r="0.7620" /> 
</g>
<g style="fill:#000000; fill-opacity:1.0000; stroke:none;">
<circle cx="245.8179" cy="67.3099" r="0.7620" /> 
</g>
<g style="fill:#000000; fill-opacity:1.0000; stroke:none;">
<circle cx="245.8179" cy="64.7699" r="0.7620" /> 
</g>
<g style="fill:#000000; fill-opacity:1.0000; stroke:none;">
<circle cx="245.8179" cy="62.2299" r="0.7620" /> 
</g>
<g style="fill:#000000; fill-opacity:1.0000; stroke:none;">
<circle cx="245.8179" cy="59.6899" r="0.7620" /> 
</g>
<g style="fill:#000000; fill-opacity:1.0000; stroke:none;">
<circle cx="245.8179" cy="57.1499" r="0.7620" /> 
</g>
<g style="fill:#000000; fill-opacity:1.0000; stroke:none;">
<circle cx="245.8179" cy="54.6099" r="0.7620" /> 
</g>
<g style="fill:#000000; fill-opacity:1.0000; stroke:none;">
<circle cx="265.9222" cy="16.5000" r="0.8500" /> 
</g>
<g style="fill:#000000; fill-opacity:1.0000; stroke:none;">
<circle cx="268.4622" cy="16.5000" r="0.8500" /> 
<path style="fill:#000000; fill-opacity:1.0000; stroke:none;fill-rule:evenodd;"
d="M 271.8522,15.6500
270.1522,15.6500
270.1522,17.3500
271.8522,17.3500
Z" /> 
</g>
<g style="fill:#000000; fill-opacity:1.0000; stroke:none;">
<circle cx="273.5422" cy="16.5000" r="0.8500" /> 
</g>
<g style="fill:#000000; fill-opacity:1.0000; stroke:none;">
<circle cx="276.0822" cy="16.5000" r="0.8500" /> 
</g>
<g style="fill:#000000; fill-opacity:1.0000; stroke:none;">
<circle cx="263.3647" cy="32.6455" r="0.8500" /> 
<path style="fill:#000000; fill-opacity:1.0000; stroke:none;fill-rule:evenodd;"
d="M 266.7547,31.7955
265.0547,31.7955
265.0547,33.4955
266.7547,33.4955
Z" /> 
</g>
<g style="fill:#000000; fill-opacity:1.0000; stroke:none;">
<circle cx="273.5257" cy="32.6627" r="0.8500" /> 
</g>
<g style="fill:#000000; fill-opacity:1.0000; stroke:none;">
<circle cx="276.0657" cy="32.6627" r="0.8500" /> 
<path style="fill:#000000; fill-opacity:1.0000; stroke:none;fill-rule:evenodd;"
d="M 280.2429,75.1699
280.3385,75.1509
280.4196,75.0967
280.4738,75.0156
280.4929,74.9199
280.4929,73.7199
280.4738,73.6243
280.4196,73.5432
280.3385,73.4890
280.2429,73.4699
278.7929,73.4699
278.6972,73.4890
278.6161,73.5432
278.5619,73.6243
278.5429,73.7199
278.5429,74.9199
278.5619,75.0156
278.6161,75.0967
278.6972,75.1509
278.7929,75.1699
Z" /> 
</g>
<g style="fill:none; 
stroke:#000000; stroke-width:1.7000; stroke-opacity:1; 
stroke-linecap:round; stroke-linejoin:round;">
<path d="M279.6429 71.8199
L279.3929 71.8199
" />
<path d="M279.6429 69.3199
L279.3929 69.3199
" />
<path d="M279.6429 66.8199
L279.3929 66.8199
" />
<path style="fill:#000000; fill-opacity:1.0000; stroke:none;fill-rule:evenodd;"
d="M 204.6679,71.6425
206.3679,71.6425
206.3679,69.9425
204.6679,69.9425
Z" /> 
</g>
<g style="fill:#000000; fill-opacity:1.0000; stroke:none;">
<circle cx="202.9779" cy="70.7925" r="0.8500" /> 
</g>
<g style="fill:#000000; fill-opacity:1.0000; stroke:none;">
<circle cx="200.4379" cy="70.7925" r="0.8500" /> 
</g>
<g style="fill:#000000; fill-opacity:1.0000; stroke:none;">
<circle cx="197.8979" cy="70.7925" r="0.8500" /> 
</g>
<g style="fill:#000000; fill-opacity:1.0000; stroke:none;">
<circle cx="195.3579" cy="70.7925" r="0.8500" /> 
</g>
<g style="fill:#000000; fill-opacity:1.0000; stroke:none;">
<circle cx="192.8179" cy="70.7925" r="0.8500" /> 
</g>
<g style="fill:#000000; fill-opacity:1.0000; stroke:none;">
<circle cx="190.2779" cy="70.7925" r="0.8500" /> 
</g>
<g style="fill:#000000; fill-opacity:1.0000; stroke:none;">
<circle cx="187.7379" cy="70.7925" r="0.8500" /> 
<path style="fill:#000000; fill-opacity:1.0000; stroke:none;fill-rule:evenodd;"
d="M 204.6679,46.1425
206.3679,46.1425
206.3679,44.4425
204.6679,44.4425
Z" /> 
</g>
<g style="fill:#000000; fill-opacity:1.0000; stroke:none;">
<circle cx="202.9779" cy="45.2925" r="0.8500" /> 
</g>
<g style="fill:#000000; fill-opacity:1.0000; stroke:none;">
<circle cx="200.4379" cy="45.2925" r="0.8500" /> 
</g>
<g style="fill:#000000; fill-opacity:1.0000; stroke:none;">
<circle cx="197.8979" cy="45.2925" r="0.8500" /> 
</g>
<g style="fill:#000000; fill-opacity:1.0000; stroke:none;">
<circle cx="195.3579" cy="45.2925" r="0.8500" /> 
</g>
<g style="fill:#000000; fill-opacity:1.0000; stroke:none;">
<circle cx="192.8179" cy="45.2925" r="0.8500" /> 
</g>
<g style="fill:#000000; fill-opacity:1.0000; stroke:none;">
<circle cx="190.2779" cy="45.2925" r="0.8500" /> 
</g>
<g style="fill:#000000; fill-opacity:1.0000; stroke:none;">
<circle cx="187.7379" cy="45.2925" r="0.8500" /> 
<path style="fill:#000000; fill-opacity:1.0000; stroke:none;fill-rule:evenodd;"
d="M 246.5311,43.1832
246.5501,43.2788
246.6043,43.3599
246.6854,43.4141
246.7811,43.4332
247.9811,43.4332
248.0767,43.4141
248.1578,43.3599
248.2120,43.2788
248.2311,43.1832
248.2311,41.6832
248.2120,41.5875
248.1578,41.5064
248.0767,41.4522
247.9811,41.4332
246.7811,41.4332
246.6854,41.4522
246.6043,41.5064
246.5501,41.5875
246.5311,41.6832
Z" /> 
</g>
<g style="fill:none; 
stroke:#000000; stroke-width:1.7000; stroke-opacity:1; 
stroke-linecap:round; stroke-linejoin:round;">
<path d="M249.8811 42.5832
L249.8811 42.2832
" />
<path style="fill:#000000; fill-opacity:1.0000; stroke:none;fill-rule:evenodd;"
d="M 230.1679,97.5449
230.1869,97.6406
230.2411,97.7217
230.3222,97.7759
230.4179,97.7949
231.6179,97.7949
231.7135,97.7759
231.7946,97.7217
231.8488,97.6406
231.8679,97.5449
231.8679,96.0949
231.8488,95.9993
231.7946,95.9182
231.7135,95.8640
231.6179,95.8449
230.4179,95.8449
230.3222,95.8640
230.2411,95.9182
230.1869,95.9993
230.1679,96.0949
Z" /> 
</g>
<g style="fill:none; 
stroke:#000000; stroke-width:1.7000; stroke-opacity:1; 
stroke-linecap:round; stroke-linejoin:round;">
<path d="M233.5179 96.9449
L233.5179 96.6949
" />
<path d="M236.0179 96.9449
L236.0179 96.6949
" />
<path d="M238.5179 96.9449
L238.5179 96.6949
" />
<path style="fill:#000000; fill-opacity:1.0000; stroke:none;fill-rule:evenodd;"
d="M 256.2811,43.1832
256.3001,43.2788
256.3543,43.3599
256.4354,43.4141
256.5311,43.4332
257.7311,43.4332
257.8267,43.4141
257.9078,43.3599
257.9620,43.2788
257.9811,43.1832
257.9811,41.6832
257.9620,41.5875
257.9078,41.5064
257.8267,41.4522
257.7311,41.4332
256.5311,41.4332
256.4354,41.4522
256.3543,41.5064
256.3001,41.5875
256.2811,41.6832
Z" /> 
</g>
<g style="fill:none; 
stroke:#000000; stroke-width:1.7000; stroke-opacity:1; 
stroke-linecap:round; stroke-linejoin:round;">
<path d="M259.6311 42.5832
L259.6311 42.2832
" />
<path style="fill:#000000; fill-opacity:1.0000; stroke:none;fill-rule:evenodd;"
d="M 182.7615,31.2246
182.8572,31.2056
182.9383,31.1514
182.9925,31.0703
183.0115,30.9746
183.0115,29.7746
182.9925,29.6790
182.9383,29.5979
182.8572,29.5437
182.7615,29.5246
181.3115,29.5246
181.2158,29.5437
181.1347,29.5979
181.0805,29.6790
181.0615,29.7746
181.0615,30.9746
181.0805,31.0703
181.1347,31.1514
181.2158,31.2056
181.3115,31.2246
Z" /> 
</g>
<g style="fill:none; 
stroke:#000000; stroke-width:1.7000; stroke-opacity:1; 
stroke-linecap:round; stroke-linejoin:round;">
<path d="M182.1615 27.8746
L181.9115 27.8746
" />
<path d="M182.1615 25.3746
L181.9115 25.3746
" />
<path d="M182.1615 22.8746
L181.9115 22.8746
" />
<path style="fill:#000000; fill-opacity:1.0000; stroke:none;fill-rule:evenodd;"
d="M 280.2429,89.1699
280.3385,89.1509
280.4196,89.0967
280.4738,89.0156
280.4929,88.9199
280.4929,87.7199
280.4738,87.6243
280.4196,87.5432
280.3385,87.4890
280.2429,87.4699
278.7929,87.4699
278.6972,87.4890
278.6161,87.5432
278.5619,87.6243
278.5429,87.7199
278.5429,88.9199
278.5619,89.0156
278.6161,89.0967
278.6972,89.1509
278.7929,89.1699
Z" /> 
</g>
<g style="fill:none; 
stroke:#000000; stroke-width:1.7000; stroke-opacity:1; 
stroke-linecap:round; stroke-linejoin:round;">
<path d="M279.6429 85.8199
L279.3929 85.8199
" />
<path d="M279.6429 83.3199
L279.3929 83.3199
" />
<path d="M279.6429 80.8199
L279.3929 80.8199
" />
</g>
<g style="fill:#000000; fill-opacity:1.0000; stroke:none;">
<circle cx="223.9839" cy="90.5426" r="0.8500" /> 
<path style="fill:#000000; fill-opacity:1.0000; stroke:none;fill-rule:evenodd;"
d="M 220.5939,91.3926
222.2939,91.3926
222.2939,89.6926
220.5939,89.6926
Z" /> 
</g>
<g style="fill:#000000; fill-opacity:1.0000; stroke:none;">
<circle cx="218.9039" cy="90.5426" r="0.8500" /> 
<circle cx="216.3639" cy="90.5426" r="0.8500" /> 
<circle cx="213.8239" cy="90.5426" r="0.8500" /> 
<circle cx="211.2839" cy="90.5426" r="0.8500" /> 
<path style="fill:#000000; fill-opacity:1.0000; stroke:none;fill-rule:evenodd;"
d="M 180.2929,60.4425
180.1972,60.4615
180.1161,60.5157
180.0619,60.5968
180.0429,60.6925
180.0429,61.8925
180.0619,61.9882
180.1161,62.0693
180.1972,62.1235
180.2929,62.1425
181.7429,62.1425
181.8385,62.1235
181.9196,62.0693
181.9738,61.9882
181.9929,61.8925
181.9929,60.6925
181.9738,60.5968
181.9196,60.5157
181.8385,60.4615
181.7429,60.4425
Z" /> 
</g>
<g style="fill:none; 
stroke:#000000; stroke-width:1.7000; stroke-opacity:1; 
stroke-linecap:round; stroke-linejoin:round;">
<path d="M180.8929 63.7925
L181.1429 63.7925
" />
<path d="M180.8929 66.2925
L181.1429 66.2925
" />
<path d="M180.8929 68.7925
L181.1429 68.7925
" />
</g>
<g style="fill:#000000; fill-opacity:1.0000; stroke:none;">
<circle cx="268.1311" cy="35.9332" r="0.8000" /> 
</g>
<g style="fill:#000000; fill-opacity:1.0000; stroke:none;">
<circle cx="260.5111" cy="35.9332" r="0.8000" /> 
<path style="fill:#000000; fill-opacity:1.0000; stroke:none;fill-rule:evenodd;"
d="M 201.3993,91.1699
203.0993,91.1699
203.0993,89.4699
201.3993,89.4699
Z" /> 
<circle cx="199.7093" cy="90.3199" r="0.8500" /> 
</g>
<g style="fill:#000000; fill-opacity:1.0000; stroke:none;">
<circle cx="197.1693" cy="90.3199" r="0.8500" /> 
</g>
<g style="fill:#000000; fill-opacity:1.0000; stroke:none;">
<circle cx="194.6293" cy="90.3199" r="0.8500" /> 
</g>
<g style="fill:#000000; fill-opacity:1.0000; stroke:none;">
<circle cx="192.0893" cy="90.3199" r="0.8500" /> 
</g>
<g style="fill:#000000; fill-opacity:1.0000; stroke:none;">
<circle cx="189.5493" cy="90.3199" r="0.8500" /> 
</g>
<g style="fill:#000000; fill-opacity:1.0000; stroke:none;">
<circle cx="187.0093" cy="90.3199" r="0.8500" /> 
</g>
<g style="fill:#000000; fill-opacity:1.0000; stroke:none;">
<circle cx="184.4693" cy="90.3199" r="0.8500" /> 
</g>
<g style="fill:#000000; fill-opacity:1.0000; stroke:none;">
<circle cx="181.9293" cy="90.3199" r="0.8500" /> 
</g>
<g style="fill:#000000; fill-opacity:1.0000; stroke:none;">
<circle cx="179.3893" cy="90.3199" r="0.8500" /> 
<path style="fill:#000000; fill-opacity:1.0000; stroke:none;fill-rule:evenodd;"
d="M 266.2811,43.1832
266.3001,43.2788
266.3543,43.3599
266.4354,43.4141
266.5311,43.4332
267.7311,43.4332
267.8267,43.4141
267.9078,43.3599
267.9620,43.2788
267.9811,43.1832
267.9811,41.6832
267.9620,41.5875
267.9078,41.5064
267.8267,41.4522
267.7311,41.4332
266.5311,41.4332
266.4354,41.4522
266.3543,41.5064
266.3001,41.5875
266.2811,41.6832
Z" /> 
</g>
<g style="fill:none; 
stroke:#000000; stroke-width:1.7000; stroke-opacity:1; 
stroke-linecap:round; stroke-linejoin:round;">
<path d="M269.6311 42.5832
L269.6311 42.2832
" />
<path style="fill:#000000; fill-opacity:1.0000; stroke:none;fill-rule:evenodd;"
d="M 235.4179,77.5699
235.4369,77.6656
235.4911,77.7467
235.5722,77.8009
235.6679,77.8199
236.8679,77.8199
236.9635,77.8009
237.0446,77.7467
237.0988,77.6656
237.1179,77.5699
237.1179,76.0699
237.0988,75.9743
237.0446,75.8932
236.9635,75.8390
236.8679,75.8199
235.6679,75.8199
235.5722,75.8390
235.4911,75.8932
235.4369,75.9743
235.4179,76.0699
Z" /> 
</g>
<g style="fill:none; 
stroke:#000000; stroke-width:1.7000; stroke-opacity:1; 
stroke-linecap:round; stroke-linejoin:round;">
<path d="M238.7679 76.9699
L238.7679 76.6699
" />
<path style="fill:#000000; fill-opacity:1.0000; stroke:none;fill-rule:evenodd;"
d="M 222.5136,96.0675
222.4945,95.9718
222.4403,95.8907
222.3592,95.8365
222.2636,95.8175
221.0636,95.8175
220.9679,95.8365
220.8868,95.8907
220.8326,95.9718
220.8136,96.0675
220.8136,97.5175
220.8326,97.6132
220.8868,97.6943
220.9679,97.7485
221.0636,97.7675
222.2636,97.7675
222.3592,97.7485
222.4403,97.6943
222.4945,97.6132
222.5136,97.5175
Z" /> 
</g>
<g style="fill:none; 
stroke:#000000; stroke-width:1.7000; stroke-opacity:1; 
stroke-linecap:round; stroke-linejoin:round;">
<path d="M219.1636 96.6675
L219.1636 96.9175
" />
<path d="M216.6636 96.6675
L216.6636 96.9175
" />
<path d="M214.1636 96.6675
L214.1636 96.9175
" />
<path style="fill:#000000; fill-opacity:1.0000; stroke:none;fill-rule:evenodd;"
d="M 186.6865,30.3569
186.6865,32.0569
188.3865,32.0569
188.3865,30.3569
Z" /> 
</g>
<g style="fill:#000000; fill-opacity:1.0000; stroke:none;">
<circle cx="187.5365" cy="28.6669" r="0.8500" /> 
</g>
<g style="fill:#000000; fill-opacity:1.0000; stroke:none;">
<circle cx="187.5365" cy="26.1269" r="0.8500" /> 
</g>
<g style="fill:#000000; fill-opacity:1.0000; stroke:none;">
<circle cx="187.5365" cy="23.5869" r="0.8500" /> 
<path style="fill:#000000; fill-opacity:1.0000; stroke:none;fill-rule:evenodd;"
d="M 182.7429,55.1425
182.8385,55.1235
182.9196,55.0693
182.9738,54.9882
182.9929,54.8925
182.9929,53.6925
182.9738,53.5968
182.9196,53.5157
182.8385,53.4615
182.7429,53.4425
181.2929,53.4425
181.1972,53.4615
181.1161,53.5157
181.0619,53.5968
181.0429,53.6925
181.0429,54.8925
181.0619,54.9882
181.1161,55.0693
181.1972,55.1235
181.2929,55.1425
Z" /> 
</g>
<g style="fill:none; 
stroke:#000000; stroke-width:1.7000; stroke-opacity:1; 
stroke-linecap:round; stroke-linejoin:round;">
<path d="M182.1429 51.7925
L181.8929 51.7925
" />
<path d="M182.1429 49.2925
L181.8929 49.2925
" />
<path d="M182.1429 46.7925
L181.8929 46.7925
" />
<path style="fill:#000000; fill-opacity:1.0000; stroke:none;fill-rule:evenodd;"
d="M 230.4179,87.5449
230.4369,87.6406
230.4911,87.7217
230.5722,87.7759
230.6679,87.7949
231.8679,87.7949
231.9635,87.7759
232.0446,87.7217
232.0988,87.6406
232.1179,87.5449
232.1179,86.0949
232.0988,85.9993
232.0446,85.9182
231.9635,85.8640
231.8679,85.8449
230.6679,85.8449
230.5722,85.8640
230.4911,85.9182
230.4369,85.9993
230.4179,86.0949
Z" /> 
</g>
<g style="fill:none; 
stroke:#000000; stroke-width:1.7000; stroke-opacity:1; 
stroke-linecap:round; stroke-linejoin:round;">
<path d="M233.7679 86.9449
L233.7679 86.6949
" />
<path d="M236.2679 86.9449
L236.2679 86.6949
" />
<path d="M238.7679 86.9449
L238.7679 86.6949
" />
<path style="fill:#000000; fill-opacity:1.0000; stroke:none;fill-rule:evenodd;"
d="M 230.4179,68.0699
230.4369,68.1656
230.4911,68.2467
230.5722,68.3009
230.6679,68.3199
231.8679,68.3199
231.9635,68.3009
232.0446,68.2467
232.0988,68.1656
232.1179,68.0699
232.1179,66.6199
232.0988,66.5243
232.0446,66.4432
231.9635,66.3890
231.8679,66.3699
230.6679,66.3699
230.5722,66.3890
230.4911,66.4432
230.4369,66.5243
230.4179,66.6199
Z" /> 
</g>
<g style="fill:none; 
stroke:#000000; stroke-width:1.7000; stroke-opacity:1; 
stroke-linecap:round; stroke-linejoin:round;">
<path d="M233.7679 67.4699
L233.7679 67.2199
" />
<path d="M236.2679 67.4699
L236.2679 67.2199
" />
<path d="M238.7679 67.4699
L238.7679 67.2199
" />
<path style="fill:#000000; fill-opacity:1.0000; stroke:none;fill-rule:evenodd;"
d="M 196.3593,96.0949
196.3402,95.9993
196.2860,95.9182
196.2049,95.8640
196.1093,95.8449
194.9093,95.8449
194.8136,95.8640
194.7325,95.9182
194.6783,95.9993
194.6593,96.0949
194.6593,97.5449
194.6783,97.6406
194.7325,97.7217
194.8136,97.7759
194.9093,97.7949
196.1093,97.7949
196.2049,97.7759
196.2860,97.7217
196.3402,97.6406
196.3593,97.5449
Z" /> 
</g>
<g style="fill:none; 
stroke:#000000; stroke-width:1.7000; stroke-opacity:1; 
stroke-linecap:round; stroke-linejoin:round;">
<path d="M193.0093 96.6949
L193.0093 96.9449
" />
<path d="M190.5093 96.6949
L190.5093 96.9449
" />
<path d="M188.0093 96.6949
L188.0093 96.9449
" />
<path style="fill:#000000; fill-opacity:1.0000; stroke:none;fill-rule:evenodd;"
d="M 280.2679,98.1699
280.3635,98.1509
280.4446,98.0967
280.4988,98.0156
280.5179,97.9199
280.5179,96.7199
280.4988,96.6243
280.4446,96.5432
280.3635,96.4890
280.2679,96.4699
278.7679,96.4699
278.6722,96.4890
278.5911,96.5432
278.5369,96.6243
278.5179,96.7199
278.5179,97.9199
278.5369,98.0156
278.5911,98.0967
278.6722,98.1509
278.7679,98.1699
Z" /> 
</g>
<g style="fill:none; 
stroke:#000000; stroke-width:1.7000; stroke-opacity:1; 
stroke-linecap:round; stroke-linejoin:round;">
<path d="M279.6679 94.8199
L279.3679 94.8199
" />
<path style="fill:#000000; fill-opacity:1.0000; stroke:none;fill-rule:evenodd;"
d="M 276.0311,43.2082
276.0501,43.3038
276.1043,43.3849
276.1854,43.4391
276.2811,43.4582
277.4811,43.4582
277.5767,43.4391
277.6578,43.3849
277.7120,43.3038
277.7311,43.2082
277.7311,41.7082
277.7120,41.6125
277.6578,41.5314
277.5767,41.4772
277.4811,41.4582
276.2811,41.4582
276.1854,41.4772
276.1043,41.5314
276.0501,41.6125
276.0311,41.7082
Z" /> 
</g>
<g style="fill:none; 
stroke:#000000; stroke-width:1.7000; stroke-opacity:1; 
stroke-linecap:round; stroke-linejoin:round;">
<path d="M279.3811 42.6082
L279.3811 42.3082
" />
</g> 
</svg>
