%TF.GenerationSoftware,KiCad,Pcbnew,9.0.0*%
%TF.CreationDate,2025-09-28T04:17:03-06:00*%
%TF.ProjectId,CanSat,43616e53-6174-42e6-9b69-6361645f7063,rev?*%
%TF.SameCoordinates,Original*%
%TF.FileFunction,Copper,L1,Top*%
%TF.FilePolarity,Positive*%
%FSLAX46Y46*%
G04 Gerber Fmt 4.6, Leading zero omitted, Abs format (unit mm)*
G04 Created by KiCad (PCBNEW 9.0.0) date 2025-09-28 04:17:03*
%MOMM*%
%LPD*%
G01*
G04 APERTURE LIST*
G04 Aperture macros list*
%AMRoundRect*
0 Rectangle with rounded corners*
0 $1 Rounding radius*
0 $2 $3 $4 $5 $6 $7 $8 $9 X,Y pos of 4 corners*
0 Add a 4 corners polygon primitive as box body*
4,1,4,$2,$3,$4,$5,$6,$7,$8,$9,$2,$3,0*
0 Add four circle primitives for the rounded corners*
1,1,$1+$1,$2,$3*
1,1,$1+$1,$4,$5*
1,1,$1+$1,$6,$7*
1,1,$1+$1,$8,$9*
0 Add four rect primitives between the rounded corners*
20,1,$1+$1,$2,$3,$4,$5,0*
20,1,$1+$1,$4,$5,$6,$7,0*
20,1,$1+$1,$6,$7,$8,$9,0*
20,1,$1+$1,$8,$9,$2,$3,0*%
G04 Aperture macros list end*
%TA.AperFunction,NonConductor*%
%ADD10C,0.200000*%
%TD*%
%TA.AperFunction,ComponentPad*%
%ADD11O,1.700000X1.700000*%
%TD*%
%TA.AperFunction,ComponentPad*%
%ADD12R,1.700000X1.700000*%
%TD*%
%TA.AperFunction,ComponentPad*%
%ADD13C,1.700000*%
%TD*%
%TA.AperFunction,ComponentPad*%
%ADD14RoundRect,0.250000X-0.600000X-0.725000X0.600000X-0.725000X0.600000X0.725000X-0.600000X0.725000X0*%
%TD*%
%TA.AperFunction,ComponentPad*%
%ADD15O,1.700000X1.950000*%
%TD*%
%TA.AperFunction,ComponentPad*%
%ADD16O,1.950000X1.700000*%
%TD*%
%TA.AperFunction,ComponentPad*%
%ADD17RoundRect,0.250000X0.725000X-0.600000X0.725000X0.600000X-0.725000X0.600000X-0.725000X-0.600000X0*%
%TD*%
%TA.AperFunction,ComponentPad*%
%ADD18O,1.700000X2.000000*%
%TD*%
%TA.AperFunction,ComponentPad*%
%ADD19RoundRect,0.250000X0.600000X0.750000X-0.600000X0.750000X-0.600000X-0.750000X0.600000X-0.750000X0*%
%TD*%
%TA.AperFunction,ComponentPad*%
%ADD20RoundRect,0.250000X0.600000X0.725000X-0.600000X0.725000X-0.600000X-0.725000X0.600000X-0.725000X0*%
%TD*%
%TA.AperFunction,ComponentPad*%
%ADD21C,1.524000*%
%TD*%
%TA.AperFunction,ComponentPad*%
%ADD22R,1.524000X1.524000*%
%TD*%
%TA.AperFunction,ComponentPad*%
%ADD23O,2.000000X1.700000*%
%TD*%
%TA.AperFunction,ComponentPad*%
%ADD24RoundRect,0.250000X0.750000X-0.600000X0.750000X0.600000X-0.750000X0.600000X-0.750000X-0.600000X0*%
%TD*%
%TA.AperFunction,ComponentPad*%
%ADD25O,1.600000X1.600000*%
%TD*%
%TA.AperFunction,ComponentPad*%
%ADD26C,1.600000*%
%TD*%
%TA.AperFunction,ComponentPad*%
%ADD27RoundRect,0.250000X-0.725000X0.600000X-0.725000X-0.600000X0.725000X-0.600000X0.725000X0.600000X0*%
%TD*%
%TA.AperFunction,Conductor*%
%ADD28C,0.200000*%
%TD*%
G04 APERTURE END LIST*
D10*
X126500000Y-149000000D02*
X126500000Y-150000000D01*
X126500000Y-150000000D02*
X127500000Y-150000000D01*
X127500000Y-150000000D02*
X126500000Y-149000000D01*
X153500000Y-150000000D02*
X154500000Y-150000000D01*
X154500000Y-150000000D02*
X154500000Y-149000000D01*
X154500000Y-149000000D02*
X153500000Y-150000000D01*
X154500000Y-125500000D02*
X154500000Y-124500000D01*
X154500000Y-124500000D02*
X153500000Y-124500000D01*
X153500000Y-124500000D02*
X154500000Y-125500000D01*
X127500000Y-124500000D02*
X126500000Y-124500000D01*
X126500000Y-124500000D02*
X126500000Y-125500000D01*
X126500000Y-125500000D02*
X127500000Y-124500000D01*
X153500000Y-122500000D02*
X154500000Y-122500000D01*
X154500000Y-122500000D02*
X154500000Y-121500000D01*
X154500000Y-121500000D02*
X153500000Y-122500000D01*
X123500000Y-121500000D02*
X123500000Y-122500000D01*
X123500000Y-122500000D02*
X124500000Y-122500000D01*
X124500000Y-122500000D02*
X123500000Y-121500000D01*
X154500000Y-92000000D02*
X154500000Y-91000000D01*
X154500000Y-91000000D02*
X153500000Y-91000000D01*
X153500000Y-91000000D02*
X154500000Y-92000000D01*
X124500000Y-91000000D02*
X123500000Y-91000000D01*
X123500000Y-91000000D02*
X123500000Y-92000000D01*
X123500000Y-92000000D02*
X124500000Y-91000000D01*
X109000000Y-89500000D02*
X109000000Y-90500000D01*
X109000000Y-90500000D02*
X110000000Y-90500000D01*
X110000000Y-90500000D02*
X109000000Y-89500000D01*
X153500000Y-90500000D02*
X154500000Y-90500000D01*
X154500000Y-90500000D02*
X154500000Y-89500000D01*
X154500000Y-89500000D02*
X153500000Y-90500000D01*
X154500000Y-62500000D02*
X154500000Y-61500000D01*
X154500000Y-61500000D02*
X153500000Y-61500000D01*
X153500000Y-61500000D02*
X154500000Y-62500000D01*
X110000000Y-61500000D02*
X109000000Y-61500000D01*
X109000000Y-61500000D02*
X109000000Y-62500000D01*
X109000000Y-62500000D02*
X110000000Y-61500000D01*
X122500000Y-123500000D02*
X122500000Y-122500000D01*
X122500000Y-122500000D02*
X121500000Y-122500000D01*
X121500000Y-122500000D02*
X122500000Y-123500000D01*
X106500000Y-122500000D02*
X105500000Y-122500000D01*
X105500000Y-122500000D02*
X105500000Y-123500000D01*
X105500000Y-123500000D02*
X106500000Y-122500000D01*
X121500000Y-149872561D02*
X122500000Y-149872561D01*
X122500000Y-149872561D02*
X122500000Y-148872561D01*
X122500000Y-148872561D02*
X121500000Y-149872561D01*
X105500000Y-149000000D02*
X105500000Y-150000000D01*
X105500000Y-150000000D02*
X106500000Y-150000000D01*
X106500000Y-150000000D02*
X105500000Y-149000000D01*
X103500000Y-149872561D02*
X104500000Y-149872561D01*
X104500000Y-149872561D02*
X104500000Y-148872561D01*
X104500000Y-148872561D02*
X103500000Y-149872561D01*
X48000000Y-149000000D02*
X48000000Y-150000000D01*
X48000000Y-150000000D02*
X49000000Y-150000000D01*
X49000000Y-150000000D02*
X48000000Y-149000000D01*
X104500000Y-97000000D02*
X104500000Y-96000000D01*
X104500000Y-96000000D02*
X103500000Y-96000000D01*
X103500000Y-96000000D02*
X104500000Y-97000000D01*
X95500000Y-95500000D02*
X96500000Y-95500000D01*
X96500000Y-95500000D02*
X96500000Y-94500000D01*
X96500000Y-94500000D02*
X95500000Y-95500000D01*
X96500000Y-63000000D02*
X96500000Y-62000000D01*
X96500000Y-62000000D02*
X95500000Y-62000000D01*
X95500000Y-62000000D02*
X96500000Y-63000000D01*
X49000000Y-62000000D02*
X48000000Y-62000000D01*
X48000000Y-62000000D02*
X48000000Y-63000000D01*
X48000000Y-63000000D02*
X49000000Y-62000000D01*
X48000000Y-94500000D02*
X48000000Y-95500000D01*
X48000000Y-95500000D02*
X49000000Y-95500000D01*
X49000000Y-95500000D02*
X48000000Y-94500000D01*
X48000000Y-97000000D02*
X49000000Y-96000000D01*
X48000000Y-96000000D02*
X48000000Y-97000000D01*
X49000000Y-96000000D02*
X48000000Y-96000000D01*
D11*
%TO.P,U5,6,SDO*%
%TO.N,unconnected-(U5-SDO-Pad6)*%
X120233923Y-139222698D03*
%TO.P,U5,5,CSB*%
%TO.N,unconnected-(U5-CSB-Pad5)*%
X117693923Y-139222698D03*
%TO.P,U5,4,SDA*%
%TO.N,Net-(J4-Pin_4)*%
X115153923Y-139222698D03*
%TO.P,U5,3,SCL*%
%TO.N,Net-(J4-Pin_3)*%
X112613923Y-139222698D03*
D12*
%TO.P,U5,2,GND*%
%TO.N,Net-(J4-Pin_2)*%
X110073923Y-139222698D03*
D13*
%TO.P,U5,1,VCC*%
%TO.N,Net-(J4-Pin_1)*%
X107533923Y-139222698D03*
%TD*%
D14*
%TO.P,J4,1,Pin_1*%
%TO.N,Net-(J4-Pin_1)*%
X109854290Y-145472561D03*
D15*
%TO.P,J4,2,Pin_2*%
%TO.N,Net-(J4-Pin_2)*%
X112354290Y-145472561D03*
%TO.P,J4,3,Pin_3*%
%TO.N,Net-(J4-Pin_3)*%
X114854290Y-145472561D03*
%TO.P,J4,4,Pin_4*%
%TO.N,Net-(J4-Pin_4)*%
X117354290Y-145472561D03*
%TD*%
D13*
%TO.P,U3,4,VCC*%
%TO.N,Net-(J6-Pin_1)*%
X143981371Y-72266974D03*
%TO.P,U3,3,RX*%
%TO.N,Net-(J6-Pin_4)*%
X143981371Y-74806974D03*
%TO.P,U3,2,TX*%
%TO.N,Net-(J6-Pin_3)*%
X143981371Y-77346974D03*
D12*
%TO.P,U3,1,GND*%
%TO.N,Net-(J6-Pin_2)*%
X143981371Y-79886974D03*
%TD*%
D16*
%TO.P,J6,4,Pin_4*%
%TO.N,Net-(J6-Pin_4)*%
X149481372Y-71554683D03*
%TO.P,J6,3,Pin_3*%
%TO.N,Net-(J6-Pin_3)*%
X149481372Y-74054683D03*
%TO.P,J6,2,Pin_2*%
%TO.N,Net-(J6-Pin_2)*%
X149481372Y-76554683D03*
D17*
%TO.P,J6,1,Pin_1*%
%TO.N,Net-(J6-Pin_1)*%
X149481372Y-79054683D03*
%TD*%
D18*
%TO.P,J13,2,Pin_2*%
%TO.N,Net-(J13-Pin_2)*%
X81636794Y-91113205D03*
D19*
%TO.P,J13,1,Pin_1*%
%TO.N,Net-(J13-Pin_1)*%
X84136794Y-91113205D03*
%TD*%
D15*
%TO.P,J5,4,Pin_4*%
%TO.N,GPS.RX*%
X92750000Y-116025000D03*
%TO.P,J5,3,Pin_3*%
%TO.N,GPS.TX*%
X95250000Y-116025000D03*
%TO.P,J5,2,Pin_2*%
%TO.N,MPU.GND*%
X97750000Y-116025000D03*
D20*
%TO.P,J5,1,Pin_1*%
%TO.N,MPU.VCC*%
X100250000Y-116025000D03*
%TD*%
%TO.P,J3,1,Pin_1*%
%TO.N,MPU.VCC*%
X100250000Y-135500000D03*
D15*
%TO.P,J3,2,Pin_2*%
%TO.N,MPU.GND*%
X97750000Y-135500000D03*
%TO.P,J3,3,Pin_3*%
%TO.N,MPU.SCL*%
X95250000Y-135500000D03*
%TO.P,J3,4,Pin_4*%
%TO.N,MPU.SDA*%
X92750000Y-135500000D03*
%TD*%
%TO.P,J1,4,Pin_4*%
%TO.N,MPU.SDA*%
X93000000Y-145500000D03*
%TO.P,J1,3,Pin_3*%
%TO.N,MPU.SCL*%
X95500000Y-145500000D03*
%TO.P,J1,2,Pin_2*%
%TO.N,MPU.GND*%
X98000000Y-145500000D03*
D20*
%TO.P,J1,1,Pin_1*%
%TO.N,MPU.VCC*%
X100500000Y-145500000D03*
%TD*%
D21*
%TO.P,U1,30,IO23*%
%TO.N,LoRa2.MOSI*%
X85700000Y-103290000D03*
%TO.P,U1,29,IO22*%
%TO.N,MPU.SCL*%
X85700000Y-105830000D03*
%TO.P,U1,28,TXD0/IO1*%
%TO.N,GPS.TX*%
X85700000Y-108370000D03*
%TO.P,U1,27,RXD0/IO3*%
%TO.N,GPS.RX*%
X85700000Y-110910000D03*
%TO.P,U1,26,IO21*%
%TO.N,MPU.SDA*%
X85700000Y-113450000D03*
%TO.P,U1,25,IO19*%
%TO.N,LoRa2.MISO*%
X85700000Y-115990000D03*
%TO.P,U1,24,IO18*%
%TO.N,LoRa2.SCK*%
X85700000Y-118530000D03*
%TO.P,U1,23,IO5*%
%TO.N,LoRa2.NSS*%
X85700000Y-121070000D03*
%TO.P,U1,22,IO17*%
%TO.N,unconnected-(U1-IO17-Pad22)*%
X85700000Y-123610000D03*
%TO.P,U1,21,IO16*%
%TO.N,unconnected-(U1-IO16-Pad21)*%
X85700000Y-126150000D03*
%TO.P,U1,20,IO4*%
%TO.N,unconnected-(U1-IO4-Pad20)*%
X85700000Y-128690000D03*
%TO.P,U1,19,IO2*%
%TO.N,LoRa1.DI00*%
X85700000Y-131230000D03*
%TO.P,U1,18,IO15*%
%TO.N,unconnected-(U1-IO15-Pad18)*%
X85700000Y-133770000D03*
%TO.P,U1,17,GND*%
%TO.N,MPU.GND*%
X85700000Y-136310000D03*
%TO.P,U1,16,3V3*%
%TO.N,MPU.VCC*%
X85700000Y-138850000D03*
%TO.P,U1,15,VIN*%
%TO.N,Net-(J12-Pin_2)*%
X60300000Y-138850000D03*
%TO.P,U1,14,GND*%
%TO.N,Net-(J12-Pin_1)*%
X60300000Y-136310000D03*
%TO.P,U1,13,IO13*%
%TO.N,unconnected-(U1-IO13-Pad13)*%
X60300000Y-133770000D03*
%TO.P,U1,12,IO12*%
%TO.N,unconnected-(U1-IO12-Pad12)*%
X60300000Y-131230000D03*
%TO.P,U1,11,IO14*%
%TO.N,LoRa1.RST*%
X60300000Y-128690000D03*
%TO.P,U1,10,IO27*%
%TO.N,unconnected-(U1-IO27-Pad10)*%
X60300000Y-126150000D03*
%TO.P,U1,9,IO26*%
%TO.N,unconnected-(U1-IO26-Pad9)*%
X60300000Y-123610000D03*
%TO.P,U1,8,IO25*%
%TO.N,unconnected-(U1-IO25-Pad8)*%
X60300000Y-121070000D03*
%TO.P,U1,7,IO33*%
%TO.N,unconnected-(U1-IO33-Pad7)*%
X60300000Y-118530000D03*
%TO.P,U1,6,IO32*%
%TO.N,unconnected-(U1-IO32-Pad6)*%
X60300000Y-115990000D03*
%TO.P,U1,5,IO35*%
%TO.N,unconnected-(U1-IO35-Pad5)*%
X60300000Y-113450000D03*
%TO.P,U1,4,IO34*%
%TO.N,unconnected-(U1-IO34-Pad4)*%
X60300000Y-110910000D03*
%TO.P,U1,3,IO39*%
%TO.N,unconnected-(U1-IO39-Pad3)*%
X60300000Y-108370000D03*
%TO.P,U1,2,IO36*%
%TO.N,unconnected-(U1-IO36-Pad2)*%
X60300000Y-105830000D03*
D22*
%TO.P,U1,1,EN*%
%TO.N,unconnected-(U1-EN-Pad1)*%
X60300000Y-103290000D03*
%TD*%
D17*
%TO.P,J10,1,Pin_1*%
%TO.N,LoRa2.NSS*%
X52000000Y-123000000D03*
D16*
%TO.P,J10,2,Pin_2*%
%TO.N,LoRa2.SCK*%
X52000000Y-120500000D03*
%TO.P,J10,3,Pin_3*%
%TO.N,LoRa2.MISO*%
X52000000Y-118000000D03*
%TO.P,J10,4,Pin_4*%
%TO.N,LoRa2.MOSI*%
X52000000Y-115500000D03*
%TD*%
%TO.P,J7,4,Pin_4*%
%TO.N,LoRa1.DI00*%
X52000000Y-129500000D03*
%TO.P,J7,3,Pin_3*%
%TO.N,LoRa1.RST*%
X52000000Y-132000000D03*
%TO.P,J7,2,Pin_2*%
%TO.N,MPU.GND*%
X52000000Y-134500000D03*
D17*
%TO.P,J7,1,Pin_1*%
%TO.N,MPU.VCC*%
X52000000Y-137000000D03*
%TD*%
D23*
%TO.P,J12,2,Pin_2*%
%TO.N,Net-(J12-Pin_2)*%
X52000000Y-143500000D03*
D24*
%TO.P,J12,1,Pin_1*%
%TO.N,Net-(J12-Pin_1)*%
X52000000Y-146000000D03*
%TD*%
D18*
%TO.P,J14,2,Pin_2*%
%TO.N,MPU.SDA*%
X92750000Y-125500000D03*
D19*
%TO.P,J14,1,Pin_1*%
%TO.N,MPU.SCL*%
X95250000Y-125500000D03*
%TD*%
%TO.P,J11,1,Pin_1*%
%TO.N,Net-(J11-Pin_1)*%
X54636794Y-91138205D03*
D18*
%TO.P,J11,2,Pin_2*%
%TO.N,Net-(D1-A)*%
X52136794Y-91138205D03*
%TD*%
D25*
%TO.P,R1,2*%
%TO.N,Net-(D1-K)*%
X71006794Y-84613205D03*
D26*
%TO.P,R1,1*%
%TO.N,Net-(J11-Pin_1)*%
X63386794Y-84613205D03*
%TD*%
D18*
%TO.P,D1,2,A*%
%TO.N,Net-(D1-A)*%
X71886794Y-91113205D03*
D19*
%TO.P,D1,1,K*%
%TO.N,Net-(D1-K)*%
X74386794Y-91113205D03*
%TD*%
D18*
%TO.P,SW1,2,2*%
%TO.N,Net-(U6-VOUT)*%
X61886794Y-91113205D03*
D19*
%TO.P,SW1,1,1*%
%TO.N,Net-(D1-A)*%
X64386794Y-91113205D03*
%TD*%
D15*
%TO.P,J2,4,Pin_4*%
%TO.N,Net-(J2-Pin_4)*%
X143508602Y-145500000D03*
%TO.P,J2,3,Pin_3*%
%TO.N,Net-(J2-Pin_3)*%
X141008602Y-145500000D03*
%TO.P,J2,2,Pin_2*%
%TO.N,Net-(J2-Pin_2)*%
X138508602Y-145500000D03*
D14*
%TO.P,J2,1,Pin_1*%
%TO.N,Net-(J2-Pin_1)*%
X136008602Y-145500000D03*
%TD*%
D13*
%TO.P,U6,1,SDA*%
%TO.N,Net-(J13-Pin_2)*%
X65595663Y-65180051D03*
%TO.P,U6,2,SCL*%
%TO.N,Net-(J13-Pin_1)*%
X63055663Y-65180051D03*
D12*
%TO.P,U6,3,GND*%
%TO.N,Net-(J11-Pin_1)*%
X60515663Y-65180051D03*
D13*
%TO.P,U6,4,Reset*%
%TO.N,unconnected-(U6-Reset-Pad4)*%
X57975663Y-65180051D03*
%TO.P,U6,5,Alerta*%
%TO.N,unconnected-(U6-Alerta-Pad5)*%
X55435663Y-65180051D03*
%TO.P,U6,6,VOUT*%
%TO.N,Net-(U6-VOUT)*%
X68153205Y-81325553D03*
D12*
%TO.P,U6,7,GND*%
%TO.N,Net-(J11-Pin_1)*%
X65613205Y-81325553D03*
D13*
%TO.P,U6,8,VBAT+*%
%TO.N,unconnected-(U6-VBAT+-Pad8)*%
X57992141Y-81342764D03*
%TO.P,U6,9,VBAT-*%
%TO.N,unconnected-(U6-VBAT--Pad9)*%
X55452141Y-81342764D03*
%TD*%
D12*
%TO.P,U2,1,GND*%
%TO.N,unconnected-(U2-GND-Pad1)*%
X126000000Y-119472561D03*
D13*
%TO.P,U2,2,GND*%
%TO.N,Net-(J8-Pin_2)*%
X128540000Y-119472561D03*
%TO.P,U2,3,3.3V*%
%TO.N,Net-(J8-Pin_1)*%
X131080000Y-119472561D03*
%TO.P,U2,4,RST*%
%TO.N,Net-(J8-Pin_3)*%
X133620000Y-119472561D03*
%TO.P,U2,5,DI00*%
%TO.N,Net-(J8-Pin_4)*%
X136160000Y-119472561D03*
%TO.P,U2,6,DI01*%
%TO.N,unconnected-(U2-DI01-Pad6)*%
X138700000Y-119472561D03*
%TO.P,U2,7,DI02*%
%TO.N,unconnected-(U2-DI02-Pad7)*%
X141240000Y-119472561D03*
%TO.P,U2,8,DI03*%
%TO.N,unconnected-(U2-DI03-Pad8)*%
X143780000Y-119472561D03*
D12*
%TO.P,U2,9,GND*%
%TO.N,unconnected-(U2-GND-Pad9)*%
X126000000Y-93972561D03*
D13*
%TO.P,U2,10,NSS*%
%TO.N,Net-(J9-Pin_1)*%
X128540000Y-93972561D03*
%TO.P,U2,11,MOSI*%
%TO.N,Net-(J9-Pin_4)*%
X131080000Y-93972561D03*
%TO.P,U2,12,MISO*%
%TO.N,Net-(J9-Pin_3)*%
X133620000Y-93972561D03*
%TO.P,U2,13,SCK*%
%TO.N,Net-(J9-Pin_2)*%
X136160000Y-93972561D03*
%TO.P,U2,14,DI05*%
%TO.N,unconnected-(U2-DI05-Pad14)*%
X138700000Y-93972561D03*
%TO.P,U2,15,DI04*%
%TO.N,unconnected-(U2-DI04-Pad15)*%
X141240000Y-93972561D03*
%TO.P,U2,16,GND*%
%TO.N,unconnected-(U2-GND-Pad16)*%
X143780000Y-93972561D03*
%TD*%
D27*
%TO.P,J8,1,Pin_1*%
%TO.N,Net-(J8-Pin_1)*%
X150500000Y-109972561D03*
D16*
%TO.P,J8,2,Pin_2*%
%TO.N,Net-(J8-Pin_2)*%
X150500000Y-112472561D03*
%TO.P,J8,3,Pin_3*%
%TO.N,Net-(J8-Pin_3)*%
X150500000Y-114972561D03*
%TO.P,J8,4,Pin_4*%
%TO.N,Net-(J8-Pin_4)*%
X150500000Y-117472561D03*
%TD*%
D12*
%TO.P,U4,1,VCC*%
%TO.N,Net-(J2-Pin_1)*%
X129268602Y-139000000D03*
D13*
%TO.P,U4,2,GND*%
%TO.N,Net-(J2-Pin_2)*%
X131808602Y-139000000D03*
%TO.P,U4,3,SCL*%
%TO.N,Net-(J2-Pin_3)*%
X134348602Y-139000000D03*
%TO.P,U4,4,SDA*%
%TO.N,Net-(J2-Pin_4)*%
X136888602Y-139000000D03*
%TO.P,U4,5,EDA*%
%TO.N,unconnected-(U4-EDA-Pad5)*%
X139428602Y-139000000D03*
%TO.P,U4,6,ECL*%
%TO.N,unconnected-(U4-ECL-Pad6)*%
X141968602Y-139000000D03*
%TO.P,U4,7,AD0*%
%TO.N,unconnected-(U4-AD0-Pad7)*%
X144508602Y-139000000D03*
%TO.P,U4,8,INT*%
%TO.N,unconnected-(U4-INT-Pad8)*%
X147048602Y-139000000D03*
%TO.P,U4,9,NCS*%
%TO.N,unconnected-(U4-NCS-Pad9)*%
X149588602Y-139000000D03*
%TO.P,U4,10,FSYNC*%
%TO.N,unconnected-(U4-FSYNC-Pad10)*%
X152128602Y-139000000D03*
%TD*%
D17*
%TO.P,J9,1,Pin_1*%
%TO.N,Net-(J9-Pin_1)*%
X149500000Y-102972561D03*
D16*
%TO.P,J9,2,Pin_2*%
%TO.N,Net-(J9-Pin_2)*%
X149500000Y-100472561D03*
%TO.P,J9,3,Pin_3*%
%TO.N,Net-(J9-Pin_3)*%
X149500000Y-97972561D03*
%TO.P,J9,4,Pin_4*%
%TO.N,Net-(J9-Pin_4)*%
X149500000Y-95472561D03*
%TD*%
D28*
%TO.N,Net-(J9-Pin_4)*%
X146588096Y-92560657D02*
X149500000Y-95472561D01*
X132491904Y-92560657D02*
X146588096Y-92560657D01*
X131080000Y-93972561D02*
X132491904Y-92560657D01*
%TO.N,Net-(J9-Pin_1)*%
X137540000Y-102972561D02*
X149500000Y-102972561D01*
X128540000Y-93972561D02*
X137540000Y-102972561D01*
%TO.N,Net-(J9-Pin_3)*%
X137620000Y-97972561D02*
X149500000Y-97972561D01*
X133620000Y-93972561D02*
X137620000Y-97972561D01*
%TO.N,Net-(J8-Pin_2)*%
X134027439Y-112472561D02*
X128540000Y-117960000D01*
X150500000Y-112472561D02*
X134027439Y-112472561D01*
X128540000Y-117960000D02*
X128540000Y-119472561D01*
%TO.N,Net-(J8-Pin_1)*%
X151308644Y-113731279D02*
X136821282Y-113731279D01*
X136821282Y-113731279D02*
X131080000Y-119472561D01*
X151913535Y-111386096D02*
X151913535Y-113126388D01*
X151913535Y-113126388D02*
X151308644Y-113731279D01*
X150500000Y-109972561D02*
X151913535Y-111386096D01*
%TO.N,Net-(J8-Pin_3)*%
X138120000Y-114972561D02*
X133620000Y-119472561D01*
%TO.N,Net-(J8-Pin_4)*%
X138160000Y-117472561D02*
X136160000Y-119472561D01*
%TO.N,Net-(J2-Pin_1)*%
X129508602Y-139000000D02*
X136008602Y-145500000D01*
X129268602Y-139000000D02*
X129508602Y-139000000D01*
%TO.N,Net-(J4-Pin_2)*%
X112354290Y-145472561D02*
X112354290Y-141503065D01*
X112354290Y-141503065D02*
X110073923Y-139222698D01*
%TO.N,Net-(J4-Pin_3)*%
X114854290Y-141463065D02*
X112613923Y-139222698D01*
%TO.N,Net-(J4-Pin_4)*%
X117354290Y-145472561D02*
X117354290Y-141423065D01*
%TO.N,Net-(J4-Pin_3)*%
X114854290Y-145472561D02*
X114854290Y-141463065D01*
%TO.N,Net-(J4-Pin_4)*%
X117354290Y-141423065D02*
X115153923Y-139222698D01*
%TO.N,Net-(J4-Pin_1)*%
X109854290Y-145472561D02*
X109854290Y-141543065D01*
X109854290Y-141543065D02*
X107533923Y-139222698D01*
%TO.N,Net-(J6-Pin_3)*%
X147273662Y-74054683D02*
X143981371Y-77346974D01*
X149481372Y-74054683D02*
X147273662Y-74054683D01*
%TO.N,Net-(J6-Pin_1)*%
X150981372Y-69554683D02*
X151981372Y-70554683D01*
%TO.N,Net-(J6-Pin_4)*%
X147233662Y-71554683D02*
X149481372Y-71554683D01*
%TO.N,Net-(J6-Pin_2)*%
X144149081Y-79886974D02*
X147481372Y-76554683D01*
%TO.N,Net-(J6-Pin_1)*%
X151981372Y-70554683D02*
X151981372Y-76554683D01*
%TO.N,Net-(J6-Pin_2)*%
X143981371Y-79886974D02*
X144149081Y-79886974D01*
%TO.N,Net-(J6-Pin_4)*%
X143981371Y-74806974D02*
X147233662Y-71554683D01*
%TO.N,Net-(J6-Pin_2)*%
X147481372Y-76554683D02*
X149481372Y-76554683D01*
%TO.N,Net-(J6-Pin_1)*%
X143981371Y-72266974D02*
X146693662Y-69554683D01*
X151981372Y-76554683D02*
X149481372Y-79054683D01*
%TO.N,Net-(J9-Pin_2)*%
X150995755Y-97517556D02*
X150995755Y-98976806D01*
X150995755Y-98976806D02*
X149500000Y-100472561D01*
X138906201Y-96718762D02*
X150196961Y-96718762D01*
X136160000Y-93972561D02*
X138906201Y-96718762D01*
X150196961Y-96718762D02*
X150995755Y-97517556D01*
%TO.N,Net-(J8-Pin_3)*%
X138120000Y-114972561D02*
X150500000Y-114972561D01*
%TO.N,Net-(J8-Pin_4)*%
X138160000Y-117472561D02*
X150500000Y-117472561D01*
%TO.N,Net-(J6-Pin_1)*%
X146693662Y-69554683D02*
X150981372Y-69554683D01*
%TO.N,Net-(J13-Pin_1)*%
X66847269Y-63664818D02*
X84136794Y-80954343D01*
X64570896Y-63664818D02*
X66847269Y-63664818D01*
X63055663Y-65180051D02*
X64570896Y-63664818D01*
X84136794Y-80954343D02*
X84136794Y-91113205D01*
%TO.N,Net-(J13-Pin_2)*%
X81636794Y-81221182D02*
X81636794Y-91113205D01*
X65595663Y-65180051D02*
X81636794Y-81221182D01*
%TO.N,Net-(J12-Pin_1)*%
X61763662Y-139677609D02*
X61763662Y-137773662D01*
X61763662Y-137773662D02*
X60300000Y-136310000D01*
X55441271Y-146000000D02*
X61763662Y-139677609D01*
X51500000Y-146000000D02*
X55441271Y-146000000D01*
%TO.N,Net-(J12-Pin_2)*%
X55650000Y-143500000D02*
X60300000Y-138850000D01*
X51500000Y-143500000D02*
X55650000Y-143500000D01*
%TO.N,Net-(D1-K)*%
X74386794Y-87993205D02*
X71006794Y-84613205D01*
X74386794Y-91113205D02*
X74386794Y-87993205D01*
%TO.N,Net-(D1-A)*%
X64386794Y-91113205D02*
X71886794Y-91113205D01*
X63060794Y-92439205D02*
X64386794Y-91113205D01*
X53437794Y-92439205D02*
X63060794Y-92439205D01*
X52136794Y-91138205D02*
X53437794Y-92439205D01*
%TO.N,Net-(U6-VOUT)*%
X68153205Y-84846794D02*
X61886794Y-91113205D01*
X68153205Y-81325553D02*
X68153205Y-84846794D01*
%TO.N,Net-(J11-Pin_1)*%
X65613205Y-82386794D02*
X65613205Y-81325553D01*
X63386794Y-84613205D02*
X65613205Y-82386794D01*
X56861794Y-91138205D02*
X63386794Y-84613205D01*
X54636794Y-91138205D02*
X56861794Y-91138205D01*
%TO.N,MPU.VCC*%
X86197358Y-139347358D02*
X86197358Y-143697358D01*
X90611330Y-148111330D02*
X97888670Y-148111330D01*
X97888670Y-148111330D02*
X100500000Y-145500000D01*
X85700000Y-138850000D02*
X86197358Y-139347358D01*
X86197358Y-143697358D02*
X90611330Y-148111330D01*
%TO.N,MPU.GND*%
X96299556Y-147200444D02*
X98000000Y-145500000D01*
X91200444Y-147200444D02*
X96299556Y-147200444D01*
X87210565Y-143210565D02*
X91200444Y-147200444D01*
X87210565Y-137820565D02*
X87210565Y-143210565D01*
X85700000Y-136310000D02*
X87210565Y-137820565D01*
%TO.N,MPU.VCC*%
X100250000Y-116025000D02*
X100250000Y-135500000D01*
%TO.N,MPU.GND*%
X97750000Y-135500000D02*
X97750000Y-116025000D01*
%TO.N,MPU.SCL*%
X95250000Y-125500000D02*
X95250000Y-135500000D01*
%TO.N,MPU.SDA*%
X92750000Y-135500000D02*
X92750000Y-125500000D01*
%TO.N,MPU.SCL*%
X95250000Y-121203468D02*
X95250000Y-125500000D01*
X85055566Y-112182876D02*
X86229408Y-112182876D01*
X84229408Y-111356718D02*
X85055566Y-112182876D01*
X86229408Y-112182876D02*
X95250000Y-121203468D01*
X84229408Y-107300592D02*
X84229408Y-111356718D01*
X85700000Y-105830000D02*
X84229408Y-107300592D01*
%TO.N,GPS.TX*%
X87595000Y-108370000D02*
X95250000Y-116025000D01*
X85700000Y-108370000D02*
X87595000Y-108370000D01*
%TO.N,GPS.RX*%
X87635000Y-110910000D02*
X92750000Y-116025000D01*
X85700000Y-110910000D02*
X87635000Y-110910000D01*
%TO.N,MPU.SDA*%
X92750000Y-120500000D02*
X85700000Y-113450000D01*
X92750000Y-125500000D02*
X92750000Y-120500000D01*
X93000000Y-135750000D02*
X92750000Y-135500000D01*
X93000000Y-145500000D02*
X93000000Y-135750000D01*
%TO.N,MPU.SCL*%
X95500000Y-135750000D02*
X95250000Y-135500000D01*
X95500000Y-145500000D02*
X95500000Y-135750000D01*
%TO.N,MPU.GND*%
X98000000Y-135750000D02*
X97750000Y-135500000D01*
X98000000Y-145500000D02*
X98000000Y-135750000D01*
%TO.N,MPU.VCC*%
X100500000Y-135750000D02*
X100250000Y-135500000D01*
X100500000Y-145500000D02*
X100500000Y-135750000D01*
%TO.N,LoRa1.RST*%
X55310000Y-128690000D02*
X52000000Y-132000000D01*
X60300000Y-128690000D02*
X55310000Y-128690000D01*
%TO.N,LoRa2.MOSI*%
X74145514Y-114746976D02*
X85602490Y-103290000D01*
X52753024Y-114746976D02*
X74145514Y-114746976D01*
X52000000Y-115500000D02*
X52753024Y-114746976D01*
X85602490Y-103290000D02*
X85700000Y-103290000D01*
%TO.N,LoRa2.MISO*%
X52736156Y-117263844D02*
X84426156Y-117263844D01*
X84426156Y-117263844D02*
X85700000Y-115990000D01*
X52000000Y-118000000D02*
X52736156Y-117263844D01*
%TO.N,LoRa2.SCK*%
X84450563Y-119779437D02*
X85700000Y-118530000D01*
X52720563Y-119779437D02*
X84450563Y-119779437D01*
X52000000Y-120500000D02*
X52720563Y-119779437D01*
%TO.N,LoRa2.NSS*%
X84472420Y-122297580D02*
X85700000Y-121070000D01*
X52702420Y-122297580D02*
X84472420Y-122297580D01*
X52000000Y-123000000D02*
X52702420Y-122297580D01*
%TO.N,LoRa1.DI00*%
X81970000Y-127500000D02*
X85700000Y-131230000D01*
X54000000Y-127500000D02*
X81970000Y-127500000D01*
X52000000Y-129500000D02*
X54000000Y-127500000D01*
%TO.N,MPU.VCC*%
X81850000Y-135000000D02*
X85700000Y-138850000D01*
X52000000Y-137000000D02*
X54000000Y-135000000D01*
X54000000Y-135000000D02*
X81850000Y-135000000D01*
%TO.N,MPU.GND*%
X81890000Y-132500000D02*
X85700000Y-136310000D01*
X54000000Y-132500000D02*
X81890000Y-132500000D01*
X52000000Y-134500000D02*
X54000000Y-132500000D01*
%TO.N,Net-(J11-Pin_1)*%
X60515663Y-65180051D02*
X60515663Y-76228011D01*
X60515663Y-76228011D02*
X65613205Y-81325553D01*
%TO.N,Net-(J2-Pin_4)*%
X143388602Y-145500000D02*
X136888602Y-139000000D01*
X143508602Y-145500000D02*
X143388602Y-145500000D01*
%TO.N,Net-(J2-Pin_3)*%
X140848602Y-145500000D02*
X134348602Y-139000000D01*
X141008602Y-145500000D02*
X140848602Y-145500000D01*
%TO.N,Net-(J2-Pin_2)*%
X138308602Y-145500000D02*
X131808602Y-139000000D01*
X138508602Y-145500000D02*
X138308602Y-145500000D01*
%TD*%
M02*
